<mxfile host="app.diagrams.net" modified="2021-07-10T07:50:36.426Z" agent="5.0 (Windows NT 10.0; WOW64) AppleWebKit/537.36 (KHTML, like Gecko) Chrome/91.0.4472.124 Safari/537.36" etag="R50uCz6t4g--Sy3jTVVc" version="14.8.5" type="github">
  <diagram id="eM291Ebu696GVLl6nnrU" name="Page-1">
    <mxGraphModel dx="1108" dy="482" grid="1" gridSize="10" guides="1" tooltips="1" connect="1" arrows="1" fold="1" page="1" pageScale="1" pageWidth="850" pageHeight="1100" math="0" shadow="0">
      <root>
        <mxCell id="0" />
        <mxCell id="1" parent="0" />
        <mxCell id="z6J2Mn9a1P_XIiaLvWXk-1" value="KUBECTL" style="rounded=1;whiteSpace=wrap;html=1;" vertex="1" parent="1">
          <mxGeometry x="100" y="220" width="120" height="60" as="geometry" />
        </mxCell>
        <mxCell id="z6J2Mn9a1P_XIiaLvWXk-2" value="LAPTOP" style="text;html=1;strokeColor=none;fillColor=none;align=center;verticalAlign=middle;whiteSpace=wrap;rounded=0;" vertex="1" parent="1">
          <mxGeometry x="135" y="280" width="55" height="20" as="geometry" />
        </mxCell>
        <mxCell id="z6J2Mn9a1P_XIiaLvWXk-3" value="" style="rounded=1;whiteSpace=wrap;html=1;" vertex="1" parent="1">
          <mxGeometry x="270" y="140" width="200" height="250" as="geometry" />
        </mxCell>
        <mxCell id="z6J2Mn9a1P_XIiaLvWXk-4" value="MASTER" style="text;html=1;strokeColor=none;fillColor=none;align=center;verticalAlign=middle;whiteSpace=wrap;rounded=0;" vertex="1" parent="1">
          <mxGeometry x="350" y="400" width="50" height="20" as="geometry" />
        </mxCell>
        <mxCell id="z6J2Mn9a1P_XIiaLvWXk-5" value="here also kubectl also some time present" style="text;html=1;strokeColor=none;fillColor=none;align=center;verticalAlign=middle;whiteSpace=wrap;rounded=0;" vertex="1" parent="1">
          <mxGeometry x="280" y="430" width="180" height="30" as="geometry" />
        </mxCell>
      </root>
    </mxGraphModel>
  </diagram>
</mxfile>
